Coordinates
version=1
nRows=26
nColumns=24
inDegrees=yes

Units are S.I. units (second, meters, Newtons, ...)
Angles are in degrees.

endheader
time	pelvis_tilt	pelvis_list	pelvis_rotation	pelvis_tx	pelvis_ty	pelvis_tz	hip_flexion_r	hip_adduction_r	hip_rotation_r	knee_angle_r	ankle_angle_r	subtalar_angle_r	mtp_angle_r	hip_flexion_l	hip_adduction_l	hip_rotation_l	knee_angle_l	ankle_angle_l	subtalar_angle_l	mtp_angle_l	lumbar_extension	lumbar_bending	lumbar_rotation
      1.42083333	      1.11269831	      1.87808244	     -5.28312331	      0.51033023	      1.07793217	      0.27456233	     15.18794482	     -5.12504759	     -5.01535487	    -63.51635608	      6.57049343	     -5.49736318	      6.08627289	      6.43445955	      4.01574553	     -3.41371460	    -13.98704523	      9.96688213	      4.80463957	      1.09604718	    -14.02222911	     -4.71794244	     -0.88249126
      1.42500000	      1.12947140	      1.82179876	     -5.17914944	      0.51526373	      1.07859284	      0.27420237	     15.58900734	     -5.01806957	     -5.10644999	    -62.84237483	      6.83689455	     -5.33631859	      6.17445660	      5.91595404	      4.01463345	     -3.29533044	    -13.55226690	      9.96956896	      4.82221200	      1.11241590	    -14.03369904	     -4.60828856	     -1.04974803
      1.42916667	      1.12911760	      1.75553059	     -5.07017425	      0.52019155	      1.07919272	      0.27384210	     15.99566450	     -4.89965607	     -5.20251899	    -62.13205305	      7.08282411	     -5.20929264	      6.25768914	      5.42207290	      3.99887571	     -3.17684135	    -13.13044236	      9.98227738	      4.84405517	      1.12900154	    -14.02765214	     -4.48486714	     -1.20369583
      1.43333333	      1.11304961	      1.68649062	     -4.96146153	      0.52509621	      1.07970703	      0.27350012	     16.41099996	     -4.77262553	     -5.29009015	    -61.39226769	      7.32253565	     -5.12038020	      6.30877099	      4.96105080	      3.97229170	     -3.08682209	    -12.73965128	      9.99374717	      4.89679082	      1.13945558	    -14.00235615	     -4.37547925	     -1.30967658
      1.43750000	      1.12382172	      1.64383781	     -4.85742395	      0.52999044	      1.08019328	      0.27313603	     16.79853316	     -4.68899365	     -5.38176160	    -60.64433154	      7.54980413	     -5.03315141	      6.38011365	      4.45937776	      3.98382853	     -2.95060605	    -12.31636713	     10.02620548	      4.88829123	      1.15507601	    -14.01287045	     -4.26573514	     -1.49539516
      1.44166667	      1.09288555	      1.57995122	     -4.75018177	      0.53487856	      1.08058973	      0.27281673	     17.21282300	     -4.56638443	     -5.46163215	    -59.85113098	      7.76179090	     -5.01306543	      6.41820941	      4.02328287	      3.95733111	     -2.85846356	    -11.94066663	     10.04586180	      4.93597390	      1.16404545	    -13.97034298	     -4.16273870	     -1.58619306
      1.44583333	      1.08337728	      1.52824473	     -4.64115905	      0.53974800	      1.08096184	      0.27248464	     17.59803020	     -4.46590445	     -5.54524926	    -59.03927783	      7.96745126	     -4.99719597	      6.45802578	      3.56207801	      3.94871371	     -2.73869736	    -11.55468341	     10.07677238	      4.94461214	      1.17430161	    -13.95849427	     -4.05630247	     -1.72530415
      1.45000000	      1.04918039	      1.48336222	     -4.53676061	      0.54460521	      1.08121758	      0.27216854	     18.00760576	     -4.37019353	     -5.62007989	    -58.21487069	      8.15887386	     -5.01610102	      6.49019953	      3.13630618	      3.94271454	     -2.62441415	    -11.18509528	     10.12203508	      4.95808974	      1.18421398	    -13.91703020	     -3.96258555	     -1.85019254
      1.45416667	      1.05900363	      1.44896238	     -4.43524375	      0.54943668	      1.08150749	      0.27185578	     18.36227371	     -4.29241045	     -5.69067719	    -57.36759462	      8.31458112	     -5.06674920	      6.53441160	      2.65301720	      3.95527109	     -2.46268229	    -10.78868554	     10.17091822	      4.90613169	      1.20003082	    -13.93211063	     -3.86762583	     -2.03647945
      1.45833333	      1.01195537	      1.40695466	     -4.33779304	      0.55426746	      1.08165704	      0.27158737	     18.76748576	     -4.19234517	     -5.74425555	    -56.49398333	      8.50341956	     -5.13180451	      6.55411910	      2.25707351	      3.94361971	     -2.37420136	    -10.44908111	     10.21152445	      4.93922016	      1.20836526	    -13.87813170	     -3.78670068	     -2.10667837
      1.46250000	      0.96206716	      1.38868530	     -4.25202309	      0.55908970	      1.08171972	      0.27132291	     19.18185779	     -4.12138299	     -5.78625400	    -55.62615571	      8.67240947	     -5.21644869	      6.56419878	      1.86200830	      3.95870454	     -2.28723265	    -10.09867982	     10.29162722	      4.98931265	      1.21510516	    -13.82209947	     -3.71715105	     -2.17467183
      1.46666667	      0.96158098	      1.34522262	     -4.14274913	      0.56387913	      1.08186533	      0.27105296	     19.51002658	     -4.02666268	     -5.84279894	    -54.69386810	      8.75900459	     -5.37238253	      6.58292330	      1.41233971	      3.95239601	     -2.10526040	     -9.74951801	     10.34966378	      4.89209000	      1.22979137	    -13.82930969	     -3.63029617	     -2.37066578
      1.47083333	      0.89394767	      1.32895432	     -4.05274737	      0.56866717	      1.08180623	      0.27083653	     19.92108704	     -3.94973144	     -5.86849433	    -53.77699487	      8.93039314	     -5.48371355	      6.59090413	      1.05806570	      3.96152679	     -2.00920447	     -9.44280913	     10.40613288	      4.90376320	      1.23864714	    -13.75761880	     -3.58139473	     -2.44164866
      1.47500000	      0.87728843	      1.31020718	     -3.96374549	      0.57343962	      1.08180402	      0.27061322	     20.26397408	     -3.87517062	     -5.89136713	    -52.83278253	      9.01736380	     -5.66861018	      6.59580638	      0.63096409	      3.97641219	     -1.85141938	     -9.09791548	     10.48001301	      4.84023691	      1.25538421	    -13.75261953	     -3.52195317	     -2.58186756
      1.47916667	      0.83080786	      1.30096825	     -3.87815054	      0.57820662	      1.08168688	      0.27041903	     20.63369703	     -3.80686428	     -5.90476799	    -51.87847344	      9.15694627	     -5.81105312	      6.59468263	      0.26078544	      3.99110816	     -1.75976888	     -8.80467182	     10.55984194	      4.85441919	      1.26499814	    -13.70468305	     -3.48060958	     -2.64169950
      1.48333333	      0.78377983	      1.29566550	     -3.79679996	      0.58296779	      1.08153017	      0.27024937	     20.99570628	     -3.73762920	     -5.90373301	    -50.90690248	      9.25372880	     -6.00097648	      6.58808041	     -0.10979207	      4.00916223	     -1.65399035	     -8.50901731	     10.65028694	      4.85393041	      1.27475988	    -13.66195640	     -3.44125097	     -2.71911977
      1.48750000	      0.76905718	      1.29136034	     -3.71837327	      0.58770914	      1.08137909	      0.27009216	     21.31314835	     -3.67067915	     -5.89677273	    -49.91753353	      9.33018800	     -6.20623057	      6.57606050	     -0.51577262	      4.02932031	     -1.54073656	     -8.21055969	     10.74501708	      4.83862455	      1.28561710	    -13.65954798	     -3.40776626	     -2.80728833
      1.49166667	      0.73082878	      1.29742542	     -3.64245340	      0.59244905	      1.08113435	      0.26995099	     21.65204448	     -3.61174966	     -5.88002653	    -48.92319351	      9.41050910	     -6.40510573	      6.56150337	     -0.89046330	      4.05695797	     -1.43206684	     -7.92386499	     10.84337038	      4.83003128	      1.29621964	    -13.63417741	     -3.38599260	     -2.88155180
      1.49583333	      0.68962824	      1.32308260	     -3.57537085	      0.59718016	      1.08083332	      0.26983905	     21.99370148	     -3.57042783	     -5.84798326	    -47.92672653	      9.44825313	     -6.62723153	      6.53611740	     -1.26514933	      4.10560533	     -1.30310931	     -7.62789745	     10.94716040	      4.78114428	      1.31065907	    -13.60363491	     -3.39429960	     -2.97682355
      1.50000000	      0.64511093	      1.35379488	     -3.50879681	      0.60191023	      1.08047244	      0.26973872	     22.32950840	     -3.53218453	     -5.80657499	    -46.91932585	      9.54140671	     -6.80103786	      6.51760526	     -1.62147949	      4.15544925	     -1.21161362	     -7.36466508	     11.04548764	      4.78337288	      1.32075774	    -13.57113916	     -3.39880505	     -3.02795532
      1.50416667	      0.61617572	      1.38327249	     -3.44542855	      0.60663620	      1.08009400	      0.26965281	     22.63979346	     -3.49263133	     -5.76143807	    -45.89928850	      9.59475183	     -6.99853899	      6.49559930	     -1.99854389	      4.20316706	     -1.11287050	     -7.09400551	     11.15851948	      4.77856618	      1.33141367	    -13.55825540	     -3.41097032	     -3.08821288
      1.50833333	      0.58235444	      1.45268802	     -3.39881355	      0.61136201	      1.07963990	      0.26959624	     22.96806668	     -3.49732112	     -5.70692763	    -44.90612493	      9.68248172	     -7.09543402	      6.48590259	     -2.37022595	      4.29342041	     -1.04056920	     -6.81814454	     11.30116493	      4.83340919	      1.33833387	    -13.52782310	     -3.47659449	     -3.12564563
      1.51250000	      0.57927895	      1.48939476	     -3.33601090	      0.61605425	      1.07922898	      0.26954703	     23.23258867	     -3.45949361	     -5.64445225	    -43.85807687	      9.65838126	     -7.35775715	      6.44615638	     -2.77777189	      4.34845562	     -0.89615940	     -6.54055429	     11.38396599	      4.73498680	      1.35267888	    -13.57947613	     -3.49964678	     -3.21668444
      1.51666667	      0.53346427	      1.56132825	     -3.28999475	      0.62080123	      1.07866770	      0.26950500	     23.55468988	     -3.46522065	     -5.58710056	    -42.84612539	      9.75355017	     -7.41362383	      6.43740209	     -3.13118977	      4.43708113	     -0.83514067	     -6.28277693	     11.52454385	      4.78739430	      1.35945682	    -13.53113055	     -3.56416575	     -3.24424014
      1.52083333	      0.51582593	      1.60754538	     -3.23095705	      0.62552195	      1.07816513	      0.26948177	     23.81563253	     -3.43516821	     -5.51926237	    -41.77829627	      9.75138736	     -7.59658337	      6.41265455	     -3.51355995	      4.49585536	     -0.72935028	     -6.03097940	     11.61809065	      4.74605987	      1.36920563	    -13.54899258	     -3.58351833	     -3.29876430
      1.52500000	      0.50523380	      1.67608990	     -3.18379659	      0.63025389	      1.07760145	      0.26946868	     24.07757025	     -3.43471547	     -5.45695630	    -40.73738812	      9.78111519	     -7.67939851	      6.39240231	     -3.91409993	      4.58036392	     -0.62543708	     -5.75560422	     11.73549974	      4.72496143	      1.37979986	    -13.56802489	     -3.64879566	     -3.34848955
